HIERARCHY
ROOT Hips
{
	OFFSET -14.64140 90.27770 -84.91600
	CHANNELS 6 Xposition Yposition Zposition Zrotation Xrotation Yrotation
	JOINT Spine
	{
		OFFSET 0.00000 13.20850 -1.60436
		CHANNELS 3 Zrotation Xrotation Yrotation
		JOINT Spine1
		{
			OFFSET 0.00000 8.61716 0.00000
			CHANNELS 3 Zrotation Xrotation Yrotation
			JOINT Spine2
			{
				OFFSET 0.00000 8.61717 0.00000
				CHANNELS 3 Zrotation Xrotation Yrotation
				JOINT Spine3
				{
					OFFSET 0.00000 8.61717 0.00000
					CHANNELS 3 Zrotation Xrotation Yrotation
					JOINT Neck
					{
						OFFSET 0.00000 11.07920 1.10792
						CHANNELS 3 Zrotation Xrotation Yrotation
						JOINT Neck1
						{
							OFFSET 0.00000 7.08032 0.00000
							CHANNELS 3 Zrotation Xrotation Yrotation
							JOINT Head
							{
								OFFSET 0.00000 7.08031 0.00000
								CHANNELS 3 Zrotation Xrotation Yrotation
								End site
								{
									OFFSET 0.00000 0.00000 0.00000
								}
							}
						}
					}
					JOINT RightShoulder
					{
						OFFSET -0.01000 7.91373 5.19711
						CHANNELS 3 Zrotation Xrotation Yrotation
						JOINT RightArm
						{
							OFFSET -18.41580 0.00000 0.00000
							CHANNELS 3 Zrotation Xrotation Yrotation
							JOINT RightForeArm
							{
								OFFSET -29.11090 0.00000 0.00000
								CHANNELS 3 Zrotation Xrotation Yrotation
								JOINT RightHand
								{
									OFFSET -24.65040 0.00000 0.00000
									CHANNELS 3 Zrotation Xrotation Yrotation
									JOINT RightHandThumb1
									{
										OFFSET -5.35114 -0.85590 3.97906
										CHANNELS 3 Zrotation Xrotation Yrotation
										JOINT RightHandThumb2
										{
											OFFSET -4.52789 0.00000 0.00000
											CHANNELS 3 Zrotation Xrotation Yrotation
											JOINT RightHandThumb3
											{
												OFFSET -2.46976 0.00000 0.00000
												CHANNELS 3 Zrotation Xrotation Yrotation
												End site
												{
													OFFSET 0.00000 0.00000 0.00000
												}
											}
										}
									}
									JOINT RightHandIndex1
									{
										OFFSET -14.26970 0.00000 2.88139
										CHANNELS 3 Zrotation Xrotation Yrotation
										JOINT RightHandIndex2
										{
											OFFSET -5.48836 0.00000 0.00000
											CHANNELS 3 Zrotation Xrotation Yrotation
											JOINT RightHandIndex3
											{
												OFFSET -3.01859 0.00000 0.00000
												CHANNELS 3 Zrotation Xrotation Yrotation
												End site
												{
													OFFSET 0.00000 0.00000 0.00000
												}
											}
										}
									}
									JOINT RightHandMiddle1
									{
										OFFSET -14.26970 0.00000 -0.09147
										CHANNELS 3 Zrotation Xrotation Yrotation
										JOINT RightHandMiddle2
										{
											OFFSET -6.17441 0.00000 0.00000
											CHANNELS 3 Zrotation Xrotation Yrotation
											JOINT RightHandMiddle3
											{
												OFFSET -3.56743 0.00000 0.00000
												CHANNELS 3 Zrotation Xrotation Yrotation
												End site
												{
													OFFSET 0.00000 0.00000 0.00000
												}
											}
										}
									}
									JOINT RightHandRing1
									{
										OFFSET -12.69180 0.00000 -3.06433
										CHANNELS 3 Zrotation Xrotation Yrotation
										JOINT RightHandRing2
										{
											OFFSET -5.62556 0.00000 0.00000
											CHANNELS 3 Zrotation Xrotation Yrotation
											JOINT RightHandRing3
											{
												OFFSET -3.56744 0.00000 0.00000
												CHANNELS 3 Zrotation Xrotation Yrotation
												End site
												{
													OFFSET 0.00000 0.00000 0.00000
												}
											}
										}
									}
									JOINT RightHandPinky1
									{
										OFFSET -11.11390 0.00000 -6.03719
										CHANNELS 3 Zrotation Xrotation Yrotation
										JOINT RightHandPinky2
										{
											OFFSET -4.52789 0.00000 0.00000
											CHANNELS 3 Zrotation Xrotation Yrotation
											JOINT RightHandPinky3
											{
												OFFSET -2.46976 0.00000 0.00000
												CHANNELS 3 Zrotation Xrotation Yrotation
												End site
												{
													OFFSET 0.00000 0.00000 0.00000
												}
											}
										}
									}
								}
							}
						}
					}
					JOINT LeftShoulder
					{
						OFFSET 0.01000 7.91373 5.19711
						CHANNELS 3 Zrotation Xrotation Yrotation
						JOINT LeftArm
						{
							OFFSET 18.41580 0.00000 0.00000
							CHANNELS 3 Zrotation Xrotation Yrotation
							JOINT LeftForeArm
							{
								OFFSET 29.11090 0.00000 0.00000
								CHANNELS 3 Zrotation Xrotation Yrotation
								JOINT LeftHand
								{
									OFFSET 24.65040 0.00000 0.00000
									CHANNELS 3 Zrotation Xrotation Yrotation
									JOINT LeftHandThumb1
									{
										OFFSET 5.35114 -0.85590 3.97906
										CHANNELS 3 Zrotation Xrotation Yrotation
										JOINT LeftHandThumb2
										{
											OFFSET 4.52789 0.00000 0.00000
											CHANNELS 3 Zrotation Xrotation Yrotation
											JOINT LeftHandThumb3
											{
												OFFSET 2.46977 0.00000 0.00000
												CHANNELS 3 Zrotation Xrotation Yrotation
												End site
												{
													OFFSET 0.00000 0.00000 0.00000
												}
											}
										}
									}
									JOINT LeftHandIndex1
									{
										OFFSET 14.26970 0.00000 2.88139
										CHANNELS 3 Zrotation Xrotation Yrotation
										JOINT LeftHandIndex2
										{
											OFFSET 5.48836 0.00000 0.00000
											CHANNELS 3 Zrotation Xrotation Yrotation
											JOINT LeftHandIndex3
											{
												OFFSET 3.01859 0.00000 0.00000
												CHANNELS 3 Zrotation Xrotation Yrotation
												End site
												{
													OFFSET 0.00000 0.00000 0.00000
												}
											}
										}
									}
									JOINT LeftHandMiddle1
									{
										OFFSET 14.26970 0.00000 -0.09147
										CHANNELS 3 Zrotation Xrotation Yrotation
										JOINT LeftHandMiddle2
										{
											OFFSET 6.17440 0.00000 0.00000
											CHANNELS 3 Zrotation Xrotation Yrotation
											JOINT LeftHandMiddle3
											{
												OFFSET 3.56744 0.00000 0.00000
												CHANNELS 3 Zrotation Xrotation Yrotation
												End site
												{
													OFFSET 0.00000 0.00000 0.00000
												}
											}
										}
									}
									JOINT LeftHandRing1
									{
										OFFSET 12.69180 0.00000 -3.06433
										CHANNELS 3 Zrotation Xrotation Yrotation
										JOINT LeftHandRing2
										{
											OFFSET 5.62556 0.00000 0.00000
											CHANNELS 3 Zrotation Xrotation Yrotation
											JOINT LeftHandRing3
											{
												OFFSET 3.56744 0.00000 0.00000
												CHANNELS 3 Zrotation Xrotation Yrotation
												End site
												{
													OFFSET 0.00000 0.00000 0.00000
												}
											}
										}
									}
									JOINT LeftHandPinky1
									{
										OFFSET 11.11390 0.00000 -6.03719
										CHANNELS 3 Zrotation Xrotation Yrotation
										JOINT LeftHandPinky2
										{
											OFFSET 4.52789 0.00000 0.00000
											CHANNELS 3 Zrotation Xrotation Yrotation
											JOINT LeftHandPinky3
											{
												OFFSET 2.46976 0.00000 0.00000
												CHANNELS 3 Zrotation Xrotation Yrotation
												End site
												{
													OFFSET 0.00000 0.00000 0.00000
												}
											}
										}
									}
								}
							}
						}
					}
					JOINT pCube4
					{
						OFFSET 0.00000 10.91090 1.10792
						CHANNELS 3 Zrotation Xrotation Yrotation
						End site
						{
							OFFSET 0.00000 0.00000 0.00000
						}
					}
				}
			}
		}
	}
	JOINT RightUpLeg
	{
		OFFSET -9.98441 0.00000 0.00000
		CHANNELS 3 Zrotation Xrotation Yrotation
		JOINT RightLeg
		{
			OFFSET 0.00000 -42.11790 0.00000
			CHANNELS 3 Zrotation Xrotation Yrotation
			JOINT RightFoot
			{
				OFFSET 0.00000 -45.00020 -0.00001
				CHANNELS 3 Zrotation Xrotation Yrotation
				JOINT RightForeFoot
				{
					OFFSET 0.00000 -3.74820 0.00000
					CHANNELS 3 Zrotation Xrotation Yrotation
					JOINT RightToeBase
					{
						OFFSET 0.00000 0.06325 14.43120
						CHANNELS 3 Zrotation Xrotation Yrotation
						End site
						{
							OFFSET 0.00000 0.00000 0.00000
						}
					}
				}
			}
		}
	}
	JOINT LeftUpLeg
	{
		OFFSET 9.98441 0.00000 0.00000
		CHANNELS 3 Zrotation Xrotation Yrotation
		JOINT LeftLeg
		{
			OFFSET 0.00000 -42.11800 0.00000
			CHANNELS 3 Zrotation Xrotation Yrotation
			JOINT LeftFoot
			{
				OFFSET 0.00000 -45.00070 0.00000
				CHANNELS 3 Zrotation Xrotation Yrotation
				JOINT LeftForeFoot
				{
					OFFSET 0.00000 -3.74824 0.00000
					CHANNELS 3 Zrotation Xrotation Yrotation
					JOINT LeftToeBase
					{
						OFFSET 0.00000 0.06325 14.43110
						CHANNELS 3 Zrotation Xrotation Yrotation
						End site
						{
							OFFSET 0.00000 0.00000 0.00000
						}
					}
				}
			}
		}
	}
}
MOTION
Frames: 4
Frame Time: 0.050000
0.0012166805528495185 0.008685863764127432 0.03368135456051948 -0.030823637669421013 -0.04737941604277417 -0.018802619269602118 -3.160096867754008 0.967496951278241 -0.7124096351300782 -0.7946300695946493 3.532335501420174 0.356391922857185 -0.8150109425623295 -1.9823026637923808 -2.151217362862254 -0.9488849179326495 -0.13400508798981228 -0.9073166705073074 -1.9514600633084445 11.602268573911026 4.83111146832072 -0.2110792406362257 -0.4486061675102975 10.297490638832898 -1.627870207370816 -15.249629894281922 0.9049240891583484 -1.9398214302148056 1.2266370046898485 -12.587801841437301 69.18801737575384 14.339495275186122 4.492563918925543 51.57320334343038 10.012488471160768 91.69461719581557 21.55063620723061 -0.19228413594807509 -4.331561547395545 4.531521593981132 -0.10488592851835866 -1.5621718667420441 -0.010016909137092089 -0.0014731403176686142 -56.25452867738706 -0.03871596870085344 -0.002462677385037407 -56.276417320994454 -38.81460471005239 0.04404547519011382 0.013324587984132101 -0.027105286815509232 -0.029968996310960932 -0.030621166545244816 0.01707834976372893 0.0126106778403025 0.023090985400588817 -36.65084175267902 0.010299603461321999 -0.037617566337891685 0.04456915360516642 0.023732619497195306 0.0020482048462129006 0.007485906814776073 -0.007982686856791132 0.03615309481624958 -19.73048867701823 0.0371182412415223 0.013458904261918144 -0.013890375860055608 0.014490723083244287 0.041856058475924184 -0.012535095368911387 -0.027615422510061997 -0.04713795060014574 24.04731584911752 0.03715394232375825 0.04546435233243522 28.869436797714698 0.017877640202017063 -0.022088506840062982 28.8873585772781 -0.03320516055651169 0.023604585876237566 8.30167539085667 1.9181062672868465 11.643511799942095 -67.00116783966054 12.367586804561695 -20.51056221991168 -71.01654239843202 7.036170529422626 -101.97606465481677 -21.60644715395229 1.0289903967920628 -2.3089375924652313 -0.5065462072071308 0.05977754698155526 -8.145309769269044 0.020911769043952737 -0.022192715014803722 44.56586491707526 -0.007098517780441354 0.016950897217440156 44.57883972433487 12.452654954656131 -0.007355773128610163 -0.019130604230108348 -0.03284645933841113 -3.315354520302616e-05 0.01776735688609872 -0.04886649275317117 -0.03320003223994024 0.017923603526341758 11.122247830600548 0.0050268298537921 0.03298607043129528 0.012480408131991156 -0.03498405460613338 0.007729838966841653 0.008612882928074645 -0.041351698074124116 0.047628965727100375 4.801525706383139 -0.014939176705239594 -0.007793052243557502 0.03578010933231157 -0.027362221477718104 -0.03591799631815757 -0.03230390453101469 -0.017966939279118122 -0.03409431138731546 -5.583094851729142 -0.04538545049319297 0.003142352874373012 -6.728899790912291 0.04257137871905729 -0.023633140887668557 -6.693650536343014 -0.028376611316602136 -0.003483634476292702 -0.03314946073511651 -0.013194530766575683 -0.016127479022780444 8.059081713028402 3.4952803717754133 -19.228091889372337 0.03762600289774721 10.387301105532538 0.06360801028405481 -5.64113005530339 -15.665490095486318 3.18922609674417 -0.04763968346314491 0.0192463802842008 0.013178262113940195 -0.037748079020834116 4.745676956996113 0.02154681664088621 12.507595786037223 -8.263701266617161 6.90241336064449 0.04854340198034301 46.36587560149787 -0.04348984777729875 -4.307249450049039 -14.737735069742405 -3.8065023512962224 0.022128441195126736 0.03015156817362985 -0.048131659630944526 0.006943047337958964 -10.762432306341436 0.032435213606972976 
-0.04164731867744401 0.018112155194102194 -0.031120743697938713 0.013439492441497803 0.003420929906178517 0.025193956591752234 -3.2341501691846877 0.9753816135084341 -0.7571194592890232 -0.8032348050637114 3.4878646017069634 0.3627797377929088 -0.8358595641342853 -1.963991172160458 -2.1854979967463555 -0.9666802628572302 -0.1388191915987642 -0.968597234147277 -2.004154380826378 11.505585573770658 4.7216329196817535 -0.1863281335405769 -0.5692313766435445 10.16764245358541 -1.573479355965281 -15.40647837694244 0.9079514372444126 -1.9447539574053838 1.333616548206089 -12.518642623488173 69.6286465875609 15.075659809190931 5.069374455241524 49.50652898611525 9.613499241159428 92.67668982876502 21.63768013381578 -0.15765455331574585 -4.402648097492326 4.483953228882449 -0.11506812939192676 -1.6052060794213328 -0.011803264036771222 0.014965562013860905 -56.26767083625443 -0.043377960046093754 -0.0015353789802714775 -56.25092693946981 -38.75229733311193 0.0011184015609644862 0.026842883642907864 -0.002168208495917794 0.030227219404282867 0.04611620438211492 -0.0230616389039093 -0.006258554104720049 -0.009201228319664991 -36.65152087215214 0.019812987073007562 -0.040060915953869514 0.010570714094032412 0.046456451163949405 -0.041243246755889924 0.0046962737908949025 0.019775737541071207 -0.010886183558602849 -19.72955724240424 -0.027882618085206853 -0.010068615809935086 -0.015055277654955717 -0.0020470352860489866 0.02646519151998265 0.0035903299299833626 -0.03445792077266991 0.01609401198111053 24.018484916653968 0.015911479444889378 -0.03402197805017991 28.844119967415853 -0.023819077949054097 0.032926105414927326 28.848319885146985 -0.015596742346403627 0.016656378913221373 8.216880307314108 1.8787850736360756 11.54632685113232 -67.48147372430631 13.560139430314933 -20.70076575144022 -68.04995021319954 7.385056228207625 -100.87946454050673 -21.46198629188202 0.5869383199016922 -1.6904712909388284 -0.5147988220645234 0.0733083200639806 -8.132140995410051 0.012078336254473946 0.010651571677629442 44.596367741350754 -0.0004208834911763408 -0.0028642430957221496 44.53252227421964 12.485948746945827 0.0038346135533524678 -0.02440806568652513 -0.015293206535276088 0.019907458915966444 -0.012980885505493197 0.030367147820221593 -0.01711461959678058 0.0049686134813309146 11.135101723539231 0.006387692608130554 0.03186818676169644 -0.03909837157115777 0.01102932389402898 0.0010699936313585039 0.0014577023967965463 -0.022507490149885626 0.04897128658879122 4.722563495520587 -0.04102362263543277 -0.002511201900131687 0.009908760754398747 -0.012946871158203734 -0.04614663119961023 0.009972697805950219 -0.0041825784598488605 0.0029007557047955753 -5.630450782405395 -0.03399152047800633 -0.001557948978051815 -6.7174963005946475 -0.04078686692896902 0.008081101808314294 -6.74317966932665 0.012316292064298993 0.010539819832511482 -0.010681257672445198 -0.030838312068484586 0.027620149881631712 8.082580918896838 3.490293555924382 -19.255863464652705 -0.01583940261839232 10.393927938934084 0.048216301367800085 -5.654505212959652 -15.687711835190255 3.192800438356095 0.011304594401385587 0.001606287831040917 0.01996550645367267 -0.03443063589814875 4.650314026038774 -0.01776881449588505 12.48236430492403 -8.207987026118255 6.886764789081714 0.023182519109438145 46.402596884073134 -0.014589346375943984 -4.3185402086013935 -14.75784083934944 -3.8802235783979135 0.04781086292902045 0.029852025784231212 -0.005444831544420259 0.002137907786032279 -10.766198262508826 -0.009662575922324447 
0.04385722455832002 -0.02929925318947531 0.02933455864123143 0.0291429562860843 0.03551074070720802 0.006795877828844732 -3.171819213452659 1.0032977123939693 -0.764799420520718 -0.8182846228126733 3.460894655026452 0.34782458248633713 -0.8434863674117958 -1.959534153934779 -2.3063891270268586 -0.9688042445297907 -0.06406677979946485 -0.972287837361047 -1.919184365462534 11.459247914131947 4.615361936272715 -0.1529066304386893 -0.5935707802007437 9.967743136173793 -1.5762961001436189 -15.483298948338877 0.8591577135155374 -2.1757488288358124 1.3784800911727024 -12.599002073174677 69.59856291449326 15.151905324630748 5.26956220370479 47.88150156347458 8.989989203041803 93.96396651512681 22.043457346608456 -0.2725048837880334 -4.597356568781754 4.514452148388899 -0.16239605470770815 -1.5762936923845958 -0.015568203334793716 -0.011531623328527226 -56.22813222972 0.038270642498375945 -0.0039015924706000127 -56.22869918053994 -38.79185752495868 0.0007399156722930058 -0.01955677135376185 -0.0015784555809062652 0.022581963622351157 0.0032732660926836515 0.012143851905205028 0.010541612928057349 0.007810304829422661 -36.65548957380491 0.0423561855508512 0.04037164730175126 -0.01318888801974579 0.030709665069376793 -0.03335785037680117 0.006426545221185875 0.038370485756855956 -0.02491246180672597 -19.79499946201683 0.0075964036253769246 -0.031543441075234525 0.012806987574871599 -0.013509949846808318 0.040195191351557816 0.044515728341876774 0.006616901748329918 0.022639556948132224 24.00469248008217 0.022940247317391603 0.010184098454119411 28.872426529451626 0.031816446856386356 0.012730597924068703 28.85326891449003 -0.013435810722032954 0.0039239193843816165 8.332719916536325 1.957555780633591 11.474276458220151 -67.64065525557788 13.886629490459335 -21.134631327854215 -66.30468888209437 7.427328142099556 -99.6627499402965 -21.126567040132503 -0.06005266506714199 -0.9236924735639968 -0.5010149347080506 0.0456997586516979 -8.119130373587758 -0.004005629037082867 -0.035948452332883046 44.5832666087284 0.04108309706471246 -0.027302594727396344 44.52859222829694 12.414829409514041 0.019515133199224335 -0.02924810991484714 0.026959015103752742 0.03252340800594141 -0.028384170621522677 0.046377778794364284 -0.04375193480900988 0.031911911126920434 11.153303715829903 0.00774135530114076 -0.01235206007097577 -0.027888378509990586 -0.010715830151616467 0.025904456455865043 -0.007938461006072935 -0.013738721117711286 -0.002594295609675291 4.820739596871478 0.023112011043055946 0.04683304554816705 0.03499263903817514 -0.00012045252248973 0.0445328206572311 0.011561066920758286 -0.011500529823393394 0.04064352783148517 -5.57761906502353 0.044508764739719056 0.03097988607463549 -6.697717035953228 -0.0018399988644543892 0.04210207658078205 -6.733822878817153 0.04998514412568019 -0.02100317211819201 -0.032385932432785994 0.013999091717659036 -0.04913960750038911 8.083954424838122 3.509799006811316 -19.239779130670264 -0.047481772496547524 10.355491644868728 0.04665060691856317 -5.597739214727922 -15.659546618439094 3.178273700022458 0.0014528320356901308 0.018076087680502242 0.03520555493661648 -0.009215883934908357 4.719850526042805 0.03193559755542061 12.428360090659929 -8.26192748561387 6.857347007860307 -0.013449569944071291 46.412968458658945 0.04199716301955262 -4.3242423915026205 -14.710707612943517 -3.8197365717975247 -0.037790342190552245 -0.004972695030313789 -0.03587672748824539 0.0012502092461955697 -10.78505301565443 0.01741609652024371 
-0.00577170891178763 -0.005206486814342847 0.03296156184470927 0.03824657990417218 0.029075729900781933 -0.012117583894824665 -3.094463962761945 0.8459725432116894 -0.766825929575201 -0.8031047916877284 3.416719913897654 0.28956764712454053 -0.8640458617001117 -2.0432448282528166 -2.418798822261374 -0.944665072077421 -0.16921693679924307 -0.9780931800399628 -1.8548237945906567 11.513893557052226 4.515078447730062 -0.13451397694589262 -0.5161401738752095 9.861218667467261 -1.487212936914799 -15.4879813236665 0.8239707235029862 -2.454285959908584 1.376301983904937 -12.708188608099194 68.92388969195478 13.97682895748948 5.433077692558214 47.653002750494295 8.364585513650521 95.22897994971146 22.72304237352896 -0.2810157470940449 -4.601090872928267 4.547208842137039 -0.17079665710823033 -1.564692075983103 0.026819275163729245 0.009937922176847044 -56.271038199482355 0.030894167448726088 -8.39137480385221e-05 -56.18827257669663 -38.74721995912805 -0.01791345252533294 -0.037962987452064376 -0.026423270786680296 -0.030070241011220373 0.00498533882037532 0.04613912631172566 0.04747618779739993 0.03753484184990979 -36.717263526113214 0.008633320938998981 -0.04691306876563976 -0.0012824256618195313 0.03362692360824062 0.045540892448391546 -0.04864128673384089 0.022775395846590264 -0.04649187492435575 -19.751495329298926 -0.007555317819995681 0.0008056139287341296 -0.009729821478351785 0.011657356226445637 -0.04556938335436034 0.01945098900824646 -0.03693763196365967 -0.0014035643571877253 24.052935435692362 0.021802543835695305 0.0004955798107429702 28.860352886748924 0.00741094240096217 0.030628282166780683 28.887666971457538 0.02065116670494591 -0.020090510562757475 8.589412971140225 2.003987485217641 11.386000855703086 -67.5848758524298 13.540855966094908 -21.63100471314382 -67.27136908810856 7.173004705463617 -99.18010255514943 -21.138266720106092 -0.7519502650063241 -0.3352218280560139 -0.47020426693542827 0.02211412516487478 -8.15489115104013 -0.02590297966454763 0.029814855428324797 44.614214061437245 -0.014595068303385715 -0.03770518493608369 44.5270006730639 12.487289986290186 -0.008354754057123262 -0.016079462607877237 -0.006865335298789186 0.030402048807767246 -0.009437962318007405 0.0290686467248842 0.002668517544908513 0.03303062533635731 11.100292043067972 0.048214574408141406 0.014613388315529325 -0.02276969375992267 0.0004951157718285829 0.026495361623789238 -0.02016311293485366 0.01326703248275982 -0.04550062497909454 4.74926171724837 -0.014762789094415921 0.007723058977308296 -0.0057542771691191305 -0.04529918155774604 -0.027100007169397703 0.015579757193830701 -0.03383085272326294 0.01682503571667622 -5.61225227631074 0.013168029025742722 0.047076955118772475 -6.684786963184557 -0.03778344566888533 -0.0014160344672253604 -6.7635081571687445 0.0018536882001972657 -0.027042161852343025 0.023780981708700463 0.017973334773579534 0.04979013941705192 8.001619702823636 3.502425067843465 -19.252127015124213 0.026399845968447598 10.380041683262181 0.05913717619842411 -5.663953298295401 -15.666589711168568 3.157489174220394 0.0037921792636072304 -0.010422930100709828 0.00454713463758734 0.027373761811968204 4.69913001344471 -0.00971440215211589 12.47343332844109 -8.246161846848924 6.872546385132373 -0.004000782883885527 46.38206295762231 -0.03181089713922253 -4.307686251607065 -14.79046321311241 -3.8350777569151933 0.011466931259413853 -0.043662916105062406 0.015290880914562203 0.04609502569752613 -10.7449866922314 0.022566433089479032 
